<?xml version="1.0" encoding="utf-8"?>
<!-- Generator: Adobe Illustrator 22.0.1, SVG Export Plug-In . SVG Version: 6.00 Build 0)  -->
<svg version="1.1" id="Layer_1" xmlns="http://www.w3.org/2000/svg" xmlns:xlink="http://www.w3.org/1999/xlink" x="0px" y="0px"
	 width="619.2px" height="127.8px" viewBox="0 0 619.2 127.8" enable-background="new 0 0 619.2 127.8" xml:space="preserve">
<g>
	<g>
		
			<linearGradient id="SVGID_1_" gradientUnits="userSpaceOnUse" x1="395.2726" y1="107.9841" x2="348.0659" y2="26.2199" gradientTransform="matrix(1 0 0 -1 0 130)">
			<stop  offset="0" style="stop-color:#00E5BD"/>
			<stop  offset="0.1734" style="stop-color:#00DAC0"/>
			<stop  offset="0.4787" style="stop-color:#00BDC9"/>
			<stop  offset="0.8772" style="stop-color:#008DD8"/>
			<stop  offset="1" style="stop-color:#007DDD"/>
		</linearGradient>
		<path fill="url(#SVGID_1_)" d="M371.1,52.7c4.2,0,8.3-0.4,14.5-3.8v45c0,7.7,7.3,9.7,16.4,9.7l0,0V25.9c-19.5,21.1-43,20.1-62.8,0
			V94c0,7.1,7.6,9.7,17.1,9.7l0,0V48.9C361.3,52.2,366.9,52.7,371.1,52.7"/>
		
			<linearGradient id="SVGID_2_" gradientUnits="userSpaceOnUse" x1="351.6273" y1="130.2317" x2="342.8508" y2="115.0304" gradientTransform="matrix(1 0 0 -1 0 130)">
			<stop  offset="0" style="stop-color:#00E5BD"/>
			<stop  offset="0.1734" style="stop-color:#00DAC0"/>
			<stop  offset="0.4787" style="stop-color:#00BDC9"/>
			<stop  offset="0.8772" style="stop-color:#008DD8"/>
			<stop  offset="1" style="stop-color:#007DDD"/>
		</linearGradient>
		<path fill="url(#SVGID_2_)" d="M338.5,0h11.8c3.3,0,5.7,2.5,5.7,4.2v10.5h-11.7c-3.4,0-5.8-2.1-5.8-4V0z"/>
		
			<linearGradient id="SVGID_3_" gradientUnits="userSpaceOnUse" x1="398.671" y1="131.922" x2="387.9592" y2="113.3686" gradientTransform="matrix(1 0 0 -1 0 130)">
			<stop  offset="0" style="stop-color:#00E5BD"/>
			<stop  offset="0.1734" style="stop-color:#00DAC0"/>
			<stop  offset="0.4787" style="stop-color:#00BDC9"/>
			<stop  offset="0.8772" style="stop-color:#008DD8"/>
			<stop  offset="1" style="stop-color:#007DDD"/>
		</linearGradient>
		<path fill="url(#SVGID_3_)" d="M402,10.6c0,2-2.4,4-5.8,4h-11.7V4.2c0-1.6,2.4-4.2,5.7-4.2H402V10.6z"/>
		<path opacity="0.65" fill="#00E5BD" enable-background="new    " d="M385.5,48.9c0,0-6.3,4-14.5,3.8s-10.8-1.7-14.8-3.8
			s-15.7-16.8-17.1-23C339.2,25.9,356.3,44.6,385.5,48.9"/>
		<path opacity="0.4" fill="#004869" enable-background="new    " d="M356.2,48.9c0,0,5.6,4,13.8,3.8c8.2-0.2,11.4-1.7,15.5-3.8
			c4-2.1,15-16.8,16.4-23C401.9,25.9,386.4,44.3,356.2,48.9"/>
	</g>
	<path fill="#4E4E4E" d="M0,27.3h23c17.6,0,33.2,4.4,33.2,25.2v1.9C56.2,74.7,40.6,80,23,80h-5.1v24c0,0-17.9,0-17.9-8V27.3z
		 M17.9,40v27.3H23c9,0,15.3-1.6,15.3-13.8C38.3,42,32,40,23,40H17.9z"/>
	<path fill="#4E4E4E" d="M65.5,47.4c1.5,0,17.5,0.3,17.5,8v48.3c0,0-17.5,0-17.5-8V47.4z M65.5,26.8h11.8c3.3,0,5.7,2.5,5.7,4.2
		v10.5H71.3c-3.4,0-5.8-2.1-5.8-4V26.8z"/>
	<path fill="#4E4E4E" d="M128.1,66.8c0-4.9-2-7.5-7.9-7.5c-3.6,0-8,0.9-8,0.9v43.4c0,0-17.5,0-17.5-8V46.5c0,0,4.6,2.5,11.4,2.5
		c5.1,0,10-2.2,15.5-2.2c11.7,0,23.9,4,23.9,18.4v38.4c0,0-17.5-0.2-17.5-8V66.8H128.1z"/>
	<path fill="#4E4E4E" d="M174.4,110.2c0,9.4-5.3,17.6-14.3,17.6c-3.1,0-7.7-0.3-14.6-6.2c8.5,0,11.4-9.5,11.4-14.7V47.4
		c0,0,17.4,0,17.4,8v54.8H174.4z M157.4,26.8h11.8c3.3,0,5.7,2.5,5.7,4.2v10.5h-11.7c-3.4,0-5.8-2.1-5.8-4V26.8z"/>
	<path fill="#4E4E4E" d="M190,71.5c-3.9-5.1-4.8-8.8-4.8-12.1c0-10.5,14.8-12.6,22-12.6c17,0,25.9,6.6,25.9,18.6v38.7
		c-2.9-1.6-6-1.9-9-1.9c-5.5,0-11.3,1.9-17.5,1.9c-11.7,0-22.9-4-22.9-17.1c0-19,27.1-15.5,31.8-22.5c0-2.5-1.9-5.4-8.6-5.4
		C199,59.2,190,61.6,190,71.5z M216,77.1c-2.8,4.4-14.7,2.7-14.7,9.4c0,4.9,3.5,5.9,7.1,5.9c3.7,0,7.6-1.1,7.6-1.1L216,77.1
		L216,77.1z"/>
	<path fill="#4E4E4E" d="M277.5,66.8c0-4.3-2-7.5-7.9-7.5c-3.6,0-8,0.8-8,0.8v43.5c0,0-17.5,0-17.5-8V46.5c0,0,4.1,2.4,12.1,2.4
		c4.9,0,9.6-2.1,14.9-2.1c10.1,0,16.7,4.3,16.7,4.3s6.3-4.3,17.9-4.3c12.8,0,22.8,6.8,22.8,19.6v37.3c0,0-17.5-0.2-17.5-8V68.3
		c0-6.8-3.4-9.2-7.9-9.2c-4,0-8,2.3-8,6.3v38.2c0,0-17.5-0.4-17.5-8V66.8H277.5z"/>
	<path fill="#4E4E4E" d="M466,84.6c0,12.3-8.6,19.6-27,19.6c-18.5,0-27.2-7.3-27.2-19.6V66.4c0-12.2,8.6-19.6,27.2-19.6
		c18.3,0,27,7.4,27,19.6V84.6z M448.5,68c0-5.7-1.7-8.8-9.5-8.8c-8,0-9.7,3.1-9.7,8.8v15c0,5.7,1.7,9,9.7,9c7.8,0,9.5-3.2,9.5-9V68z
		"/>
	<path fill="#4E4E4E" d="M526.3,31.4v72.7c-3-1.7-5.7-1.8-9.3-1.8c-6.5,0-12.4,1.8-16.1,1.8c-16.1,0-25.5-7-25.5-19.4V66.1
		c0-12,10.6-19.3,22.9-19.3c6.1,0,11.2,3.2,11.2,3.2s-0.7-3.3-0.7-5.4V22.4C510.6,22.4,526.3,22.5,526.3,31.4z M508.8,66.6
		c0-4.5-4.5-7.5-9.2-7.5c-4,0-6.8,2.6-6.8,8.5v15.6c0,5.8,2.2,9.1,9.3,9.1c2.9,0,6.7-0.6,6.7-0.6V66.6z"/>
	<path fill="#4E4E4E" d="M541.9,71.5c-3.9-5.1-4.8-8.8-4.8-12.1c0-10.5,14.8-12.6,22-12.6c17,0,25.9,6.6,25.9,18.6v38.7
		c-2.9-1.6-6-1.9-9-1.9c-5.5,0-11.3,1.9-17.5,1.9c-11.7,0-22.9-4-22.9-17.1c0-19,27.1-15.5,31.8-22.5c0-2.5-1.9-5.4-8.6-5.4
		C550.9,59.2,541.9,61.6,541.9,71.5z M567.8,77.1c-2.8,4.4-14.7,2.7-14.7,9.4c0,4.9,3.5,5.9,7.1,5.9c3.7,0,7.6-1.1,7.6-1.1
		L567.8,77.1L567.8,77.1z"/>
	<path fill="#4E4E4E" d="M595.4,22.2c1.1,0,17.5,0.1,17.5,8v52.6c0,5.7,0.1,15.5,6.3,16c-2.7,4.4-6.5,4.9-9.5,4.9
		c-9.9,0-14.4-8.2-14.4-17.6V22.2H595.4z"/>
</g>
</svg>
